<svg width="72" height="59" viewBox="0 0 72 59" fill="none" xmlns="http://www.w3.org/2000/svg">
<mask id="path-1-inside-1" fill="white">
<path d="M71.3397 47.339C70.9887 47.0879 70.5283 46.9923 70.046 46.9621C70.3306 44.5572 70.3026 42.1216 70.085 39.7122C69.8988 37.6457 69.7543 35.3369 68.5107 33.5901C68.1789 33.1237 67.7757 32.7134 67.3659 32.3146C66.2102 31.188 64.6759 30.2426 63.6965 28.9693C62.7555 27.747 62.2738 26.2496 61.7211 24.8296C60.3446 21.2981 59.1223 17.6803 57.242 14.3728C56.8668 13.7131 56.4889 12.8595 55.744 12.5502C54.9492 12.2206 53.8456 12.4354 53.009 12.4601C50.9644 12.5205 48.9199 12.581 46.8753 12.6414C45.8207 12.6727 44.7627 12.6969 43.7107 12.7903C42.9181 12.8606 41.8716 12.8474 41.2784 13.472C40.768 14.0081 40.7439 14.7865 40.712 15.4825C40.7065 15.6033 40.7016 15.7242 40.6966 15.8456C39.9699 15.8071 39.2162 15.8884 38.4834 15.9356C38.172 14.7332 38.2813 13.4373 38.2824 12.2074C38.2835 10.8275 38.2846 9.44821 38.2857 8.06833L38.289 3.78146C38.2901 2.82675 38.6565 1.10794 37.7029 0.488313C37.2629 0.202119 36.6641 0.235627 36.1648 0.20926C35.4314 0.169709 34.6981 0.13675 33.9642 0.108735C32.5453 0.0554515 31.1259 0.0241405 29.7059 0.00875967C28.3354 -0.00662119 26.9643 -0.00167735 25.5938 0.0230418C24.3424 0.0461132 22.9153 -0.0906666 21.6903 0.181245C20.5285 0.438874 20.3906 1.51663 20.3494 2.53177C19.5414 2.40872 18.6317 2.5054 17.8874 2.50266C16.6201 2.49881 15.3534 2.51199 14.0861 2.53122C12.8189 2.5499 11.5516 2.56912 10.2843 2.5878C9.42684 2.60043 8.09585 2.37082 7.48336 3.14536C6.92086 3.85782 7.11587 5.17124 7.10598 6.01718C7.0917 7.24875 7.07852 8.48087 7.06478 9.71243C7.03896 12.0542 6.99062 14.3959 7.07852 16.7371C7.01589 16.7343 6.95272 16.7327 6.8901 16.7305C5.88101 16.6893 4.29513 16.4992 4.0018 17.7857C3.71176 19.0552 3.82821 20.5323 3.83261 21.8282C3.8381 23.4322 3.90018 25.0334 3.94687 26.6363C3.99081 28.1244 3.87546 29.6477 3.99795 31.1319C3.76889 31.1385 3.53982 31.1435 3.31131 31.1512C2.14291 31.1902 0.530673 31.1588 0.0923185 32.5321C-0.261441 33.639 0.446078 34.8085 1.45462 35.2622C1.87759 35.4523 2.33572 35.5512 2.80923 35.5957C2.62466 36.2757 2.71091 37.1535 2.69772 37.7578C2.67355 38.8701 2.67026 39.9853 2.68564 41.0976C2.70157 42.2105 2.72739 43.3235 2.76419 44.4358C2.78671 45.1236 2.65268 46.1003 2.88229 46.8292C2.86526 46.833 2.84824 46.8347 2.83176 46.8391C1.50626 47.1429 1.54251 48.8562 1.62875 49.9367C1.67325 50.4953 1.70236 51.1617 2.12863 51.5791C2.49667 51.94 3.02347 52.0219 3.51401 52.0565C4.28799 52.1109 5.09494 52.0966 5.86508 52.0098C6.1694 51.9752 6.49185 51.9576 6.78134 51.8774C7.00656 53.154 7.53555 54.3669 8.42379 55.3447C9.88717 56.9564 12.0833 57.8029 14.2059 58.0479C16.4575 58.3083 18.9426 57.9166 20.5769 56.2313C21.8024 54.9673 22.7252 53.287 23.1136 51.5379C23.4778 51.6022 23.8629 51.5995 24.2298 51.6198C25.0126 51.6626 25.7986 51.6654 26.5825 51.6802C28.1997 51.7115 29.8169 51.7198 31.4346 51.7181C34.4822 51.7154 37.5304 51.6912 40.5774 51.6225C40.7746 52.9925 41.3152 54.3015 42.2627 55.3452C43.7256 56.9564 45.9223 57.8029 48.0448 58.0479C50.2965 58.3083 52.781 57.9166 54.4158 56.2313C55.5238 55.0887 56.3834 53.605 56.8251 52.0389C59.0251 52.2998 61.3037 52.2702 63.507 52.2762C64.7182 52.2801 65.9289 52.2614 67.139 52.2213C67.7686 52.2004 68.3981 52.174 69.0265 52.1411C69.5544 52.1142 70.1449 52.1466 70.658 51.9999C71.5418 51.7467 71.7989 50.8419 71.9143 50.0328C72.0373 49.1704 72.1477 47.9179 71.3397 47.339ZM68.3624 38.0357C68.5024 39.3942 68.5563 40.74 68.5568 42.0842C68.0339 42.0287 67.4582 42.1111 66.9704 42.1199C66.3272 42.1309 65.6553 42.1177 65.0088 42.2029C65.0242 41.7667 65.0451 41.3311 65.0747 40.8966C65.1077 40.4143 65.1505 39.9331 65.2027 39.453C65.2609 38.9168 65.2598 38.2599 65.5147 37.7715C66.0124 36.8174 67.2846 36.8498 68.23 36.9294C68.2849 37.3029 68.3256 37.6748 68.3624 38.0357ZM68.5469 43.1191C68.5233 44.4023 68.4585 45.6866 68.3794 46.9819C68.3569 46.9819 68.3338 46.9819 68.3118 46.9819C67.2621 46.9676 66.2123 46.9627 65.1621 46.9632C65.0242 45.6421 64.9715 44.3084 64.9901 42.9779C65.6422 43.0697 66.3211 43.0598 66.9704 43.0752C67.4533 43.0862 68.0262 43.1696 68.5469 43.1191ZM37.3584 17.5347C37.5875 17.5309 37.8166 17.5298 38.0462 17.5237C38.8899 17.5012 39.7793 17.5331 40.6296 17.4314C40.6126 17.8566 40.5961 18.2818 40.5796 18.7069C40.4879 21.052 40.3989 23.397 40.3621 25.7442C40.3379 27.3219 40.2704 28.9176 40.311 30.5046C40.0737 30.4167 39.8254 30.3755 39.5727 30.3596C39.3168 30.3437 39.0569 30.353 38.8009 30.3651C36.0302 30.4953 33.2759 30.5008 30.5107 30.5343C29.9993 26.1359 30.2267 21.7227 30.3393 17.31C30.8716 17.4529 31.4808 17.4408 31.9922 17.4688C32.6821 17.5061 33.3748 17.5204 34.0669 17.5298C34.0428 17.7769 34.0285 18.0258 34.0109 18.2757C33.9703 18.841 33.8549 19.4864 33.9011 20.0533C33.978 20.9915 34.7113 20.7828 35.4325 20.7378C36.0868 20.6966 37.2068 21.1399 37.4452 20.2505C37.6759 19.3897 37.4079 18.4455 37.3584 17.5347ZM34.7432 17.5385C34.8602 17.5402 34.9766 17.5413 35.0931 17.5429C35.4908 17.5479 35.8874 17.5479 36.2845 17.5468C36.2807 17.7715 36.2917 17.9989 36.3153 18.2351C36.3603 18.6916 36.5098 19.265 36.4631 19.7583C36.3334 19.7419 36.2016 19.716 36.1423 19.7133C35.8583 19.7012 35.5737 19.7116 35.2908 19.7391C35.1936 19.7484 34.9684 19.7457 34.8277 19.7803C34.8261 19.7347 34.825 19.6891 34.8228 19.6435C34.7981 18.9547 34.8135 18.2362 34.7432 17.5385ZM28.7842 2.55374C28.7946 2.21427 28.8116 1.87314 28.7985 1.53476C29.3467 1.53641 29.8949 1.54025 30.4431 1.54849C30.4739 1.78305 30.503 2.01816 30.5255 2.25436C30.5596 2.61801 30.7123 3.3107 30.6035 3.66226C30.587 3.71445 30.581 3.74905 30.5799 3.77268C30.5585 3.78092 30.5294 3.7963 30.4904 3.82047C30.3228 3.92429 29.9718 3.90122 29.7664 3.92923C29.4104 3.97812 29.0286 4.05557 28.6584 4.07425C28.6238 3.6304 28.7748 2.84708 28.7842 2.55374ZM21.971 3.26566C21.9913 2.88333 22.015 2.50101 22.0336 2.11868C22.0518 1.73911 22.0001 1.71878 22.3638 1.67264C23.1323 1.57541 23.9392 1.60617 24.7127 1.5853C25.8393 1.55454 26.9665 1.53751 28.0937 1.53421C27.858 2.3884 27.7729 3.35355 27.7009 4.17478C27.6059 5.25638 28.5079 5.16135 29.3302 5.07071C30.102 4.98612 31.4813 5.08994 31.689 4.11874C31.8521 3.353 31.7411 2.41312 31.5978 1.57047C32.3377 1.58804 33.0776 1.61167 33.8176 1.64188C34.6003 1.67429 35.3831 1.71274 36.1648 1.75778C36.351 1.76877 36.5372 1.77976 36.7229 1.79129C36.7245 1.84238 36.7273 1.91324 36.7333 2.00772C36.7163 2.40048 36.7295 2.79709 36.7273 3.1904C36.7196 4.66861 36.7119 6.14682 36.7048 7.62503C36.6965 9.20157 36.6888 10.7787 36.6806 12.3552C36.6745 13.5648 36.5845 14.8095 36.8031 16.006C36.184 16.0296 35.5649 16.0537 34.9459 16.0768C33.9615 16.1131 32.976 16.1224 31.9922 16.1609C31.4808 16.1812 30.8903 16.1554 30.3635 16.2779C30.4069 14.1548 30.4085 12.0316 30.2728 9.91129C30.2333 9.29056 30.2635 8.54239 29.9449 7.98209C29.5818 7.34378 28.9303 7.21304 28.2568 7.11636C26.6754 6.8895 25.0554 6.95706 23.463 6.95596C22.9131 6.95541 22.3638 6.95761 21.8139 6.96146C22.0177 5.76175 21.9078 4.45493 21.971 3.26566ZM17.5265 18.3581C17.4507 17.8401 17.3941 17.1848 16.9832 16.8058C16.5427 16.3998 15.7951 16.4646 15.243 16.4751C14.6788 16.4855 14.1163 16.5251 13.5533 16.5712C13.7258 15.5621 13.6357 14.4563 13.6632 13.4764C13.684 12.7469 13.711 12.0168 13.7439 11.2873C13.7615 10.8979 13.7813 10.5089 13.8021 10.12C13.8142 9.88931 13.7203 9.25321 13.8851 9.06864C14.0367 8.89835 14.6975 8.939 14.9052 8.91483C15.2897 8.86923 15.6748 8.82913 16.0604 8.79343C16.8311 8.72257 17.604 8.67038 18.3768 8.63138C18.557 8.62259 18.7372 8.61655 18.9168 8.60886C18.8037 9.56522 18.83 10.61 18.8905 11.5038C18.9663 12.6139 20.1517 12.2992 20.9438 12.2552C21.6101 12.2184 23.1081 12.4673 23.2679 11.545C23.3613 11.0039 23.1943 10.3183 23.1509 9.77616C23.118 9.36032 23.0889 8.94394 23.0537 8.52811C24.4462 8.52207 25.853 8.4913 27.2417 8.59073C27.574 8.6149 27.9064 8.64786 28.2343 8.70773C28.61 8.7764 28.5958 8.8154 28.6315 9.19058C28.704 9.95578 28.7298 10.7287 28.7545 11.4966C28.849 14.4843 28.7155 17.4726 28.6249 20.4587C28.5233 23.8282 28.487 27.2038 28.871 30.5579C28.8314 30.5584 28.7919 30.559 28.7523 30.5595C25.5147 30.62 22.2781 30.7534 19.0404 30.8249C18.5922 30.8353 18.1439 30.8441 17.6957 30.854C17.694 30.8402 17.6924 30.8271 17.6902 30.8139C17.6232 28.019 17.565 25.2328 17.649 22.4362C17.6902 21.0723 17.7265 19.7133 17.5265 18.3581ZM21.9287 8.53525C21.9639 8.94943 22.0051 9.36307 22.0419 9.7767C22.082 10.22 22.177 10.7018 22.1885 11.1604C21.8068 11.2209 21.1904 11.1599 20.9438 11.1753C20.5944 11.1967 20.2302 11.2489 19.8743 11.2604C19.8605 10.9945 19.916 10.4749 19.9138 10.354C19.9083 10.0667 19.9067 9.77945 19.8962 9.49216C19.8853 9.18729 19.8776 8.87967 19.8534 8.5748C20.545 8.55447 21.2366 8.54184 21.9287 8.53525ZM14.9634 4.01932C15.0947 4.01657 15.226 4.01163 15.3578 4.00778C15.349 4.41922 15.4451 4.84769 15.5594 5.22507C15.583 5.29703 15.6072 5.36844 15.6314 5.43985C15.4012 5.48654 15.0348 5.55246 14.9909 5.55905C14.5877 5.61893 14.1735 5.65628 13.7637 5.65683C13.6417 5.37668 13.684 4.82187 13.6648 4.58182C13.6505 4.40384 13.6286 4.22696 13.606 4.04953C14.0587 4.03964 14.5108 4.02921 14.9634 4.01932ZM8.58639 10.565C8.60122 9.47568 8.61605 8.38583 8.63088 7.29654C8.63747 6.77963 8.64352 6.26273 8.65176 5.74637C8.65615 5.47501 8.66054 5.20419 8.67043 4.93283C8.67483 4.81638 8.64736 4.33737 8.6968 4.16599C8.83578 4.1561 8.9753 4.15006 9.11483 4.15061C9.35818 4.14291 9.60207 4.13962 9.84597 4.13413L11.4544 4.09787C12.0333 4.08469 12.6129 4.07205 13.1918 4.05887C13.1479 4.30441 13.1045 4.55051 13.0721 4.7988C13.0199 5.20419 12.8952 5.72275 13.0408 6.121C13.2924 6.80985 14.3537 6.57034 14.9074 6.51322C15.4759 6.45444 16.5657 6.48135 16.6871 5.74033C16.7492 5.35965 16.5465 4.94107 16.4724 4.57303C16.4312 4.36813 16.4262 4.17203 16.4383 3.97702C17.0189 3.95834 17.5996 3.93692 18.1802 3.9133C18.819 3.88693 19.5952 3.92758 20.2972 3.81278C20.2478 4.85043 20.2077 5.97543 20.4368 6.98013C19.7018 6.99442 18.9668 7.01529 18.2324 7.05155C17.4106 7.09165 16.5899 7.14768 15.7714 7.22623C14.9953 7.29984 14.1169 7.30808 13.3726 7.55527C12.6343 7.79971 12.3184 8.38529 12.2509 9.12741C12.1635 10.0843 12.1635 11.0566 12.1405 12.0168C12.1168 12.9891 12.0905 13.9641 12.1026 14.9364C12.1097 15.5215 12.102 16.1147 12.1998 16.686C11.8142 16.7168 11.4274 16.7437 11.0407 16.7596C10.2464 16.7915 9.45321 16.7931 8.66 16.7805C8.55398 14.709 8.55837 12.6392 8.58639 10.565ZM10.1596 19.7402C10.136 19.2491 10.1234 18.7476 10.0613 18.256C10.5837 18.2532 11.1066 18.2439 11.6296 18.2274C11.6334 18.663 11.7049 19.1112 11.7296 19.526C11.7417 19.7259 11.9108 20.5334 11.7999 20.6839C11.684 20.841 11.2121 20.8487 10.96 20.8866C10.7902 20.9124 10.4639 21.0294 10.309 20.9487C10.1909 20.8866 10.1525 20.7152 10.136 20.5971C10.0965 20.3109 10.1734 20.0258 10.1596 19.7402ZM5.26028 28.092C5.30752 26.8802 5.32455 25.6635 5.30807 24.4506C5.29214 23.2366 5.27291 22.0226 5.29763 20.8086C5.31027 20.1786 5.33389 19.5479 5.37509 18.9184C5.38937 18.6954 5.35916 18.2851 5.50473 18.2032C5.66348 18.1142 6.17599 18.2016 6.36605 18.206C7.38119 18.2296 8.38754 18.251 9.39278 18.2549C9.2615 19.2035 9.24776 20.2566 9.31203 21.1662C9.3796 22.1176 10.2261 21.9688 10.9375 21.871C11.8361 21.7474 12.7826 21.7996 12.8013 20.6834C12.8112 20.1077 12.7464 19.5227 12.7194 18.947C12.7068 18.6866 12.7046 18.4323 12.6843 18.1823C13.0051 18.1648 13.3259 18.1439 13.6478 18.1186C14.2268 18.0725 14.8063 18.0302 15.3875 18.0324C15.5308 18.0329 15.6803 18.05 15.8225 18.0412C15.8445 18.0423 15.8659 18.0434 15.8879 18.045C15.8945 18.1313 15.9093 18.2202 15.9093 18.2142C15.9049 18.4174 15.9818 18.6493 16.0043 18.852C16.1389 20.0885 16.073 21.3398 16.0351 22.5796C15.9511 25.3432 15.9236 28.1266 16.0758 30.8891C13.5522 30.9435 11.0286 30.9957 8.50509 31.0435C7.32131 31.066 6.13754 31.0819 4.95431 31.1078C5.18887 30.1267 5.22128 29.0995 5.26028 28.092ZM1.9144 33.8148C1.50186 33.5138 1.34641 32.9551 1.93088 32.8002C2.49393 32.6513 3.18057 32.7414 3.7568 32.7288C4.54837 32.7118 5.33938 32.6821 6.13095 32.6574C7.66409 32.6096 9.19723 32.5618 10.7309 32.514C13.7478 32.4195 16.7652 32.336 19.7825 32.252C25.1038 32.1031 30.4739 32.1086 35.7885 31.6609C36.2549 31.6686 36.7212 31.6768 37.1887 31.6834C37.8347 31.6922 38.5032 31.651 39.1465 31.7159C39.9051 31.7922 40.0204 32.3987 39.5057 32.9232C39.0443 33.3935 38.3049 33.4929 37.682 33.5533C36.9157 33.628 36.1434 33.667 35.3743 33.7137C29.3654 34.0757 23.3449 34.0669 17.3276 34.0461C14.3168 34.0356 11.3066 34.023 8.29635 34.0532C6.77639 34.068 5.25698 34.1015 3.73703 34.1175C3.1597 34.1235 2.40988 34.1762 1.9144 33.8148ZM6.733 49.1935C6.67037 49.662 6.64511 50.1372 6.65664 50.6112C6.08975 50.542 5.42837 50.6706 4.92685 50.6722C4.44619 50.6744 3.89194 50.7145 3.42062 50.6107C3.33218 50.5909 3.19211 50.553 3.17068 50.5228C3.09103 50.4124 3.10312 49.7955 3.09323 49.6538C3.074 49.3764 2.9191 48.4656 3.1196 48.2448C3.40469 47.9295 4.40829 48.1162 4.77084 48.136C5.50582 48.1761 6.22158 48.2157 6.94009 48.1415C6.8511 48.4876 6.78079 48.8391 6.733 49.1935ZM4.2446 45.8871C4.21383 45.3554 4.18582 44.8231 4.16 44.2914C4.13638 43.8118 4.11661 43.3328 4.09738 42.8532C4.31546 42.8933 4.53683 42.923 4.75766 42.9702C5.58163 43.1444 5.59591 43.9903 5.62832 44.688C5.65634 45.2977 5.59536 45.8893 5.50637 46.4914C5.48935 46.6078 5.47726 46.7138 5.47451 46.8138C5.07516 46.7874 4.67471 46.7501 4.27701 46.7347C4.30557 46.4677 4.26217 46.1876 4.2446 45.8871ZM20.5472 53.8297C19.4821 55.56 18.0802 56.4829 16.0329 56.6339C14.151 56.7735 12.2031 56.3456 10.6051 55.3255C8.98739 54.2928 8.10629 52.6223 8.00576 50.7167C7.8547 47.869 9.36367 45.3296 11.6389 43.8975C12.4799 43.4729 13.4011 43.2081 14.3443 43.135C17.8572 42.862 21.0333 45.2005 21.6964 48.682C22.0408 50.4898 21.4942 52.291 20.5472 53.8297ZM40.5719 49.1935C40.5258 49.5357 40.5016 49.8817 40.4945 50.2278C37.4749 50.2998 34.4553 50.3662 31.4346 50.397C29.8663 50.4129 28.298 50.4228 26.7292 50.4404C25.9453 50.4492 25.1603 50.4415 24.377 50.4662C24.0211 50.4778 23.642 50.4662 23.2767 50.5085C23.285 50.425 23.2943 50.3415 23.2998 50.258C23.3328 49.7439 23.3135 49.2385 23.2493 48.7441C26.087 48.8562 28.9561 48.6639 31.7917 48.6249C34.7536 48.5843 37.716 48.5683 40.6785 48.5744C40.6362 48.7793 40.6 48.9858 40.5719 49.1935ZM54.3861 53.8297C53.321 55.56 51.9192 56.4829 49.8719 56.6339C47.9899 56.7735 46.0415 56.3456 44.4441 55.3255C42.8258 54.2928 41.9452 52.6223 41.8442 50.7167C41.6936 47.869 43.2026 45.3296 45.4779 43.8975C46.3189 43.4729 47.2401 43.2081 48.1833 43.135C51.6961 42.862 54.8717 45.2005 55.5353 48.682C55.8797 50.4898 55.3332 52.291 54.3861 53.8297ZM56.74 47.2439C55.7501 44.3166 53.0903 42.0754 49.907 41.698C47.5927 41.4234 45.2812 42.1128 43.5459 43.6767C43.3092 43.8904 43.0741 44.1266 42.8478 44.382C42.0458 45.2153 41.4377 46.22 41.0405 47.3055C37.9572 47.3164 34.8739 47.351 31.7917 47.412C28.8924 47.4691 25.9365 47.4159 23.0471 47.7295C22.1995 44.5671 19.4255 42.0957 16.0681 41.6975C13.7538 41.4228 11.4423 42.1122 9.70699 43.6767C9.47024 43.8898 9.23513 44.1266 9.00881 44.382C8.35513 45.0609 7.83108 45.8547 7.44381 46.7122C7.40591 46.7149 7.368 46.7199 7.3279 46.7287C7.06149 46.7902 6.79287 46.821 6.52371 46.8341C6.49844 46.5853 6.56271 46.3282 6.58084 46.0772C6.6105 45.6608 6.6061 45.2422 6.57095 44.8264C6.52096 44.2254 6.46438 43.5229 6.18643 42.9785C5.83541 42.2924 4.87411 42.0556 4.07101 42.1584C4.05673 41.7563 4.0419 41.3542 4.02926 40.9521C3.99521 39.8875 3.96335 38.8224 3.93423 37.7572C3.91775 37.1623 4.004 36.301 3.83536 35.6231C4.55056 35.605 5.26907 35.5303 5.92825 35.5188C9.38235 35.4589 12.837 35.4787 16.2911 35.4979C23.2877 35.5363 30.3096 35.6286 37.2942 35.1299C38.7773 35.0238 40.4352 34.7442 41.1619 33.2671C41.358 32.8678 41.4294 32.3838 41.3657 31.9284C41.5426 30.4612 41.592 28.9786 41.6651 27.5031C41.7623 25.5481 41.8612 23.5937 41.9458 21.6381C42.0298 19.6836 42.1216 17.7292 42.221 15.7752C42.2369 15.4682 42.1754 14.9337 42.3347 14.6618C42.5182 14.3487 43.0829 14.3668 43.4256 14.3228C44.4726 14.1877 45.5295 14.163 46.5837 14.135C48.4821 14.0839 50.3805 14.035 52.279 13.985C52.7168 13.9735 53.1551 13.9619 53.5935 13.9504C54.0159 13.9389 54.5438 13.8378 54.9635 13.9169C55.5765 14.0323 56.0319 15.3253 56.3049 15.8428C57.9732 19.0091 59.0987 22.4209 60.4116 25.7404C61.0801 27.4328 61.7124 29.2291 63.0049 30.559C64.1354 31.7208 65.679 32.3459 66.7754 33.5132C67.4401 34.2213 68.0081 35.2694 68.0976 36.2477C67.707 36.3697 67.1357 36.2065 66.7007 36.2549C66.2343 36.3065 65.7828 36.4466 65.3977 36.7207C64.5408 37.3304 64.4589 38.3714 64.3244 39.3332C63.9684 41.8722 63.9096 44.4078 64.0382 46.9627C61.6173 46.9676 59.1454 46.9402 56.74 47.2439ZM70.5047 49.5494C70.486 49.7867 70.4893 50.2234 70.3471 50.4289C70.1828 50.6662 70.0713 50.6189 69.7521 50.6409C69.1248 50.6837 68.4937 50.7002 67.8652 50.7216C66.6068 50.7634 65.3472 50.7821 64.0882 50.7771C61.7618 50.7683 59.4382 50.5415 57.1173 50.492C57.1245 50.414 57.1333 50.336 57.1382 50.258C57.1833 49.5719 57.1355 48.9001 57.0086 48.2525C59.2772 48.3909 61.5778 48.2882 63.8454 48.3096C65.1357 48.3211 66.426 48.3448 67.7164 48.3788C68.4113 48.3969 69.1056 48.4162 69.8005 48.4431C70.0647 48.4535 70.3322 48.3909 70.4992 48.6436C70.6118 48.815 70.5206 49.3478 70.5047 49.5494Z"/>
</mask>
<path d="M71.3397 47.339C70.9887 47.0879 70.5283 46.9923 70.046 46.9621C70.3306 44.5572 70.3026 42.1216 70.085 39.7122C69.8988 37.6457 69.7543 35.3369 68.5107 33.5901C68.1789 33.1237 67.7757 32.7134 67.3659 32.3146C66.2102 31.188 64.6759 30.2426 63.6965 28.9693C62.7555 27.747 62.2738 26.2496 61.7211 24.8296C60.3446 21.2981 59.1223 17.6803 57.242 14.3728C56.8668 13.7131 56.4889 12.8595 55.744 12.5502C54.9492 12.2206 53.8456 12.4354 53.009 12.4601C50.9644 12.5205 48.9199 12.581 46.8753 12.6414C45.8207 12.6727 44.7627 12.6969 43.7107 12.7903C42.9181 12.8606 41.8716 12.8474 41.2784 13.472C40.768 14.0081 40.7439 14.7865 40.712 15.4825C40.7065 15.6033 40.7016 15.7242 40.6966 15.8456C39.9699 15.8071 39.2162 15.8884 38.4834 15.9356C38.172 14.7332 38.2813 13.4373 38.2824 12.2074C38.2835 10.8275 38.2846 9.44821 38.2857 8.06833L38.289 3.78146C38.2901 2.82675 38.6565 1.10794 37.7029 0.488313C37.2629 0.202119 36.6641 0.235627 36.1648 0.20926C35.4314 0.169709 34.6981 0.13675 33.9642 0.108735C32.5453 0.0554515 31.1259 0.0241405 29.7059 0.00875967C28.3354 -0.00662119 26.9643 -0.00167735 25.5938 0.0230418C24.3424 0.0461132 22.9153 -0.0906666 21.6903 0.181245C20.5285 0.438874 20.3906 1.51663 20.3494 2.53177C19.5414 2.40872 18.6317 2.5054 17.8874 2.50266C16.6201 2.49881 15.3534 2.51199 14.0861 2.53122C12.8189 2.5499 11.5516 2.56912 10.2843 2.5878C9.42684 2.60043 8.09585 2.37082 7.48336 3.14536C6.92086 3.85782 7.11587 5.17124 7.10598 6.01718C7.0917 7.24875 7.07852 8.48087 7.06478 9.71243C7.03896 12.0542 6.99062 14.3959 7.07852 16.7371C7.01589 16.7343 6.95272 16.7327 6.8901 16.7305C5.88101 16.6893 4.29513 16.4992 4.0018 17.7857C3.71176 19.0552 3.82821 20.5323 3.83261 21.8282C3.8381 23.4322 3.90018 25.0334 3.94687 26.6363C3.99081 28.1244 3.87546 29.6477 3.99795 31.1319C3.76889 31.1385 3.53982 31.1435 3.31131 31.1512C2.14291 31.1902 0.530673 31.1588 0.0923185 32.5321C-0.261441 33.639 0.446078 34.8085 1.45462 35.2622C1.87759 35.4523 2.33572 35.5512 2.80923 35.5957C2.62466 36.2757 2.71091 37.1535 2.69772 37.7578C2.67355 38.8701 2.67026 39.9853 2.68564 41.0976C2.70157 42.2105 2.72739 43.3235 2.76419 44.4358C2.78671 45.1236 2.65268 46.1003 2.88229 46.8292C2.86526 46.833 2.84824 46.8347 2.83176 46.8391C1.50626 47.1429 1.54251 48.8562 1.62875 49.9367C1.67325 50.4953 1.70236 51.1617 2.12863 51.5791C2.49667 51.94 3.02347 52.0219 3.51401 52.0565C4.28799 52.1109 5.09494 52.0966 5.86508 52.0098C6.1694 51.9752 6.49185 51.9576 6.78134 51.8774C7.00656 53.154 7.53555 54.3669 8.42379 55.3447C9.88717 56.9564 12.0833 57.8029 14.2059 58.0479C16.4575 58.3083 18.9426 57.9166 20.5769 56.2313C21.8024 54.9673 22.7252 53.287 23.1136 51.5379C23.4778 51.6022 23.8629 51.5995 24.2298 51.6198C25.0126 51.6626 25.7986 51.6654 26.5825 51.6802C28.1997 51.7115 29.8169 51.7198 31.4346 51.7181C34.4822 51.7154 37.5304 51.6912 40.5774 51.6225C40.7746 52.9925 41.3152 54.3015 42.2627 55.3452C43.7256 56.9564 45.9223 57.8029 48.0448 58.0479C50.2965 58.3083 52.781 57.9166 54.4158 56.2313C55.5238 55.0887 56.3834 53.605 56.8251 52.0389C59.0251 52.2998 61.3037 52.2702 63.507 52.2762C64.7182 52.2801 65.9289 52.2614 67.139 52.2213C67.7686 52.2004 68.3981 52.174 69.0265 52.1411C69.5544 52.1142 70.1449 52.1466 70.658 51.9999C71.5418 51.7467 71.7989 50.8419 71.9143 50.0328C72.0373 49.1704 72.1477 47.9179 71.3397 47.339ZM68.3624 38.0357C68.5024 39.3942 68.5563 40.74 68.5568 42.0842C68.0339 42.0287 67.4582 42.1111 66.9704 42.1199C66.3272 42.1309 65.6553 42.1177 65.0088 42.2029C65.0242 41.7667 65.0451 41.3311 65.0747 40.8966C65.1077 40.4143 65.1505 39.9331 65.2027 39.453C65.2609 38.9168 65.2598 38.2599 65.5147 37.7715C66.0124 36.8174 67.2846 36.8498 68.23 36.9294C68.2849 37.3029 68.3256 37.6748 68.3624 38.0357ZM68.5469 43.1191C68.5233 44.4023 68.4585 45.6866 68.3794 46.9819C68.3569 46.9819 68.3338 46.9819 68.3118 46.9819C67.2621 46.9676 66.2123 46.9627 65.1621 46.9632C65.0242 45.6421 64.9715 44.3084 64.9901 42.9779C65.6422 43.0697 66.3211 43.0598 66.9704 43.0752C67.4533 43.0862 68.0262 43.1696 68.5469 43.1191ZM37.3584 17.5347C37.5875 17.5309 37.8166 17.5298 38.0462 17.5237C38.8899 17.5012 39.7793 17.5331 40.6296 17.4314C40.6126 17.8566 40.5961 18.2818 40.5796 18.7069C40.4879 21.052 40.3989 23.397 40.3621 25.7442C40.3379 27.3219 40.2704 28.9176 40.311 30.5046C40.0737 30.4167 39.8254 30.3755 39.5727 30.3596C39.3168 30.3437 39.0569 30.353 38.8009 30.3651C36.0302 30.4953 33.2759 30.5008 30.5107 30.5343C29.9993 26.1359 30.2267 21.7227 30.3393 17.31C30.8716 17.4529 31.4808 17.4408 31.9922 17.4688C32.6821 17.5061 33.3748 17.5204 34.0669 17.5298C34.0428 17.7769 34.0285 18.0258 34.0109 18.2757C33.9703 18.841 33.8549 19.4864 33.9011 20.0533C33.978 20.9915 34.7113 20.7828 35.4325 20.7378C36.0868 20.6966 37.2068 21.1399 37.4452 20.2505C37.6759 19.3897 37.4079 18.4455 37.3584 17.5347ZM34.7432 17.5385C34.8602 17.5402 34.9766 17.5413 35.0931 17.5429C35.4908 17.5479 35.8874 17.5479 36.2845 17.5468C36.2807 17.7715 36.2917 17.9989 36.3153 18.2351C36.3603 18.6916 36.5098 19.265 36.4631 19.7583C36.3334 19.7419 36.2016 19.716 36.1423 19.7133C35.8583 19.7012 35.5737 19.7116 35.2908 19.7391C35.1936 19.7484 34.9684 19.7457 34.8277 19.7803C34.8261 19.7347 34.825 19.6891 34.8228 19.6435C34.7981 18.9547 34.8135 18.2362 34.7432 17.5385ZM28.7842 2.55374C28.7946 2.21427 28.8116 1.87314 28.7985 1.53476C29.3467 1.53641 29.8949 1.54025 30.4431 1.54849C30.4739 1.78305 30.503 2.01816 30.5255 2.25436C30.5596 2.61801 30.7123 3.3107 30.6035 3.66226C30.587 3.71445 30.581 3.74905 30.5799 3.77268C30.5585 3.78092 30.5294 3.7963 30.4904 3.82047C30.3228 3.92429 29.9718 3.90122 29.7664 3.92923C29.4104 3.97812 29.0286 4.05557 28.6584 4.07425C28.6238 3.6304 28.7748 2.84708 28.7842 2.55374ZM21.971 3.26566C21.9913 2.88333 22.015 2.50101 22.0336 2.11868C22.0518 1.73911 22.0001 1.71878 22.3638 1.67264C23.1323 1.57541 23.9392 1.60617 24.7127 1.5853C25.8393 1.55454 26.9665 1.53751 28.0937 1.53421C27.858 2.3884 27.7729 3.35355 27.7009 4.17478C27.6059 5.25638 28.5079 5.16135 29.3302 5.07071C30.102 4.98612 31.4813 5.08994 31.689 4.11874C31.8521 3.353 31.7411 2.41312 31.5978 1.57047C32.3377 1.58804 33.0776 1.61167 33.8176 1.64188C34.6003 1.67429 35.3831 1.71274 36.1648 1.75778C36.351 1.76877 36.5372 1.77976 36.7229 1.79129C36.7245 1.84238 36.7273 1.91324 36.7333 2.00772C36.7163 2.40048 36.7295 2.79709 36.7273 3.1904C36.7196 4.66861 36.7119 6.14682 36.7048 7.62503C36.6965 9.20157 36.6888 10.7787 36.6806 12.3552C36.6745 13.5648 36.5845 14.8095 36.8031 16.006C36.184 16.0296 35.5649 16.0537 34.9459 16.0768C33.9615 16.1131 32.976 16.1224 31.9922 16.1609C31.4808 16.1812 30.8903 16.1554 30.3635 16.2779C30.4069 14.1548 30.4085 12.0316 30.2728 9.91129C30.2333 9.29056 30.2635 8.54239 29.9449 7.98209C29.5818 7.34378 28.9303 7.21304 28.2568 7.11636C26.6754 6.8895 25.0554 6.95706 23.463 6.95596C22.9131 6.95541 22.3638 6.95761 21.8139 6.96146C22.0177 5.76175 21.9078 4.45493 21.971 3.26566ZM17.5265 18.3581C17.4507 17.8401 17.3941 17.1848 16.9832 16.8058C16.5427 16.3998 15.7951 16.4646 15.243 16.4751C14.6788 16.4855 14.1163 16.5251 13.5533 16.5712C13.7258 15.5621 13.6357 14.4563 13.6632 13.4764C13.684 12.7469 13.711 12.0168 13.7439 11.2873C13.7615 10.8979 13.7813 10.5089 13.8021 10.12C13.8142 9.88931 13.7203 9.25321 13.8851 9.06864C14.0367 8.89835 14.6975 8.939 14.9052 8.91483C15.2897 8.86923 15.6748 8.82913 16.0604 8.79343C16.8311 8.72257 17.604 8.67038 18.3768 8.63138C18.557 8.62259 18.7372 8.61655 18.9168 8.60886C18.8037 9.56522 18.83 10.61 18.8905 11.5038C18.9663 12.6139 20.1517 12.2992 20.9438 12.2552C21.6101 12.2184 23.1081 12.4673 23.2679 11.545C23.3613 11.0039 23.1943 10.3183 23.1509 9.77616C23.118 9.36032 23.0889 8.94394 23.0537 8.52811C24.4462 8.52207 25.853 8.4913 27.2417 8.59073C27.574 8.6149 27.9064 8.64786 28.2343 8.70773C28.61 8.7764 28.5958 8.8154 28.6315 9.19058C28.704 9.95578 28.7298 10.7287 28.7545 11.4966C28.849 14.4843 28.7155 17.4726 28.6249 20.4587C28.5233 23.8282 28.487 27.2038 28.871 30.5579C28.8314 30.5584 28.7919 30.559 28.7523 30.5595C25.5147 30.62 22.2781 30.7534 19.0404 30.8249C18.5922 30.8353 18.1439 30.8441 17.6957 30.854C17.694 30.8402 17.6924 30.8271 17.6902 30.8139C17.6232 28.019 17.565 25.2328 17.649 22.4362C17.6902 21.0723 17.7265 19.7133 17.5265 18.3581ZM21.9287 8.53525C21.9639 8.94943 22.0051 9.36307 22.0419 9.7767C22.082 10.22 22.177 10.7018 22.1885 11.1604C21.8068 11.2209 21.1904 11.1599 20.9438 11.1753C20.5944 11.1967 20.2302 11.2489 19.8743 11.2604C19.8605 10.9945 19.916 10.4749 19.9138 10.354C19.9083 10.0667 19.9067 9.77945 19.8962 9.49216C19.8853 9.18729 19.8776 8.87967 19.8534 8.5748C20.545 8.55447 21.2366 8.54184 21.9287 8.53525ZM14.9634 4.01932C15.0947 4.01657 15.226 4.01163 15.3578 4.00778C15.349 4.41922 15.4451 4.84769 15.5594 5.22507C15.583 5.29703 15.6072 5.36844 15.6314 5.43985C15.4012 5.48654 15.0348 5.55246 14.9909 5.55905C14.5877 5.61893 14.1735 5.65628 13.7637 5.65683C13.6417 5.37668 13.684 4.82187 13.6648 4.58182C13.6505 4.40384 13.6286 4.22696 13.606 4.04953C14.0587 4.03964 14.5108 4.02921 14.9634 4.01932ZM8.58639 10.565C8.60122 9.47568 8.61605 8.38583 8.63088 7.29654C8.63747 6.77963 8.64352 6.26273 8.65176 5.74637C8.65615 5.47501 8.66054 5.20419 8.67043 4.93283C8.67483 4.81638 8.64736 4.33737 8.6968 4.16599C8.83578 4.1561 8.9753 4.15006 9.11483 4.15061C9.35818 4.14291 9.60207 4.13962 9.84597 4.13413L11.4544 4.09787C12.0333 4.08469 12.6129 4.07205 13.1918 4.05887C13.1479 4.30441 13.1045 4.55051 13.0721 4.7988C13.0199 5.20419 12.8952 5.72275 13.0408 6.121C13.2924 6.80985 14.3537 6.57034 14.9074 6.51322C15.4759 6.45444 16.5657 6.48135 16.6871 5.74033C16.7492 5.35965 16.5465 4.94107 16.4724 4.57303C16.4312 4.36813 16.4262 4.17203 16.4383 3.97702C17.0189 3.95834 17.5996 3.93692 18.1802 3.9133C18.819 3.88693 19.5952 3.92758 20.2972 3.81278C20.2478 4.85043 20.2077 5.97543 20.4368 6.98013C19.7018 6.99442 18.9668 7.01529 18.2324 7.05155C17.4106 7.09165 16.5899 7.14768 15.7714 7.22623C14.9953 7.29984 14.1169 7.30808 13.3726 7.55527C12.6343 7.79971 12.3184 8.38529 12.2509 9.12741C12.1635 10.0843 12.1635 11.0566 12.1405 12.0168C12.1168 12.9891 12.0905 13.9641 12.1026 14.9364C12.1097 15.5215 12.102 16.1147 12.1998 16.686C11.8142 16.7168 11.4274 16.7437 11.0407 16.7596C10.2464 16.7915 9.45321 16.7931 8.66 16.7805C8.55398 14.709 8.55837 12.6392 8.58639 10.565ZM10.1596 19.7402C10.136 19.2491 10.1234 18.7476 10.0613 18.256C10.5837 18.2532 11.1066 18.2439 11.6296 18.2274C11.6334 18.663 11.7049 19.1112 11.7296 19.526C11.7417 19.7259 11.9108 20.5334 11.7999 20.6839C11.684 20.841 11.2121 20.8487 10.96 20.8866C10.7902 20.9124 10.4639 21.0294 10.309 20.9487C10.1909 20.8866 10.1525 20.7152 10.136 20.5971C10.0965 20.3109 10.1734 20.0258 10.1596 19.7402ZM5.26028 28.092C5.30752 26.8802 5.32455 25.6635 5.30807 24.4506C5.29214 23.2366 5.27291 22.0226 5.29763 20.8086C5.31027 20.1786 5.33389 19.5479 5.37509 18.9184C5.38937 18.6954 5.35916 18.2851 5.50473 18.2032C5.66348 18.1142 6.17599 18.2016 6.36605 18.206C7.38119 18.2296 8.38754 18.251 9.39278 18.2549C9.2615 19.2035 9.24776 20.2566 9.31203 21.1662C9.3796 22.1176 10.2261 21.9688 10.9375 21.871C11.8361 21.7474 12.7826 21.7996 12.8013 20.6834C12.8112 20.1077 12.7464 19.5227 12.7194 18.947C12.7068 18.6866 12.7046 18.4323 12.6843 18.1823C13.0051 18.1648 13.3259 18.1439 13.6478 18.1186C14.2268 18.0725 14.8063 18.0302 15.3875 18.0324C15.5308 18.0329 15.6803 18.05 15.8225 18.0412C15.8445 18.0423 15.8659 18.0434 15.8879 18.045C15.8945 18.1313 15.9093 18.2202 15.9093 18.2142C15.9049 18.4174 15.9818 18.6493 16.0043 18.852C16.1389 20.0885 16.073 21.3398 16.0351 22.5796C15.9511 25.3432 15.9236 28.1266 16.0758 30.8891C13.5522 30.9435 11.0286 30.9957 8.50509 31.0435C7.32131 31.066 6.13754 31.0819 4.95431 31.1078C5.18887 30.1267 5.22128 29.0995 5.26028 28.092ZM1.9144 33.8148C1.50186 33.5138 1.34641 32.9551 1.93088 32.8002C2.49393 32.6513 3.18057 32.7414 3.7568 32.7288C4.54837 32.7118 5.33938 32.6821 6.13095 32.6574C7.66409 32.6096 9.19723 32.5618 10.7309 32.514C13.7478 32.4195 16.7652 32.336 19.7825 32.252C25.1038 32.1031 30.4739 32.1086 35.7885 31.6609C36.2549 31.6686 36.7212 31.6768 37.1887 31.6834C37.8347 31.6922 38.5032 31.651 39.1465 31.7159C39.9051 31.7922 40.0204 32.3987 39.5057 32.9232C39.0443 33.3935 38.3049 33.4929 37.682 33.5533C36.9157 33.628 36.1434 33.667 35.3743 33.7137C29.3654 34.0757 23.3449 34.0669 17.3276 34.0461C14.3168 34.0356 11.3066 34.023 8.29635 34.0532C6.77639 34.068 5.25698 34.1015 3.73703 34.1175C3.1597 34.1235 2.40988 34.1762 1.9144 33.8148ZM6.733 49.1935C6.67037 49.662 6.64511 50.1372 6.65664 50.6112C6.08975 50.542 5.42837 50.6706 4.92685 50.6722C4.44619 50.6744 3.89194 50.7145 3.42062 50.6107C3.33218 50.5909 3.19211 50.553 3.17068 50.5228C3.09103 50.4124 3.10312 49.7955 3.09323 49.6538C3.074 49.3764 2.9191 48.4656 3.1196 48.2448C3.40469 47.9295 4.40829 48.1162 4.77084 48.136C5.50582 48.1761 6.22158 48.2157 6.94009 48.1415C6.8511 48.4876 6.78079 48.8391 6.733 49.1935ZM4.2446 45.8871C4.21383 45.3554 4.18582 44.8231 4.16 44.2914C4.13638 43.8118 4.11661 43.3328 4.09738 42.8532C4.31546 42.8933 4.53683 42.923 4.75766 42.9702C5.58163 43.1444 5.59591 43.9903 5.62832 44.688C5.65634 45.2977 5.59536 45.8893 5.50637 46.4914C5.48935 46.6078 5.47726 46.7138 5.47451 46.8138C5.07516 46.7874 4.67471 46.7501 4.27701 46.7347C4.30557 46.4677 4.26217 46.1876 4.2446 45.8871ZM20.5472 53.8297C19.4821 55.56 18.0802 56.4829 16.0329 56.6339C14.151 56.7735 12.2031 56.3456 10.6051 55.3255C8.98739 54.2928 8.10629 52.6223 8.00576 50.7167C7.8547 47.869 9.36367 45.3296 11.6389 43.8975C12.4799 43.4729 13.4011 43.2081 14.3443 43.135C17.8572 42.862 21.0333 45.2005 21.6964 48.682C22.0408 50.4898 21.4942 52.291 20.5472 53.8297ZM40.5719 49.1935C40.5258 49.5357 40.5016 49.8817 40.4945 50.2278C37.4749 50.2998 34.4553 50.3662 31.4346 50.397C29.8663 50.4129 28.298 50.4228 26.7292 50.4404C25.9453 50.4492 25.1603 50.4415 24.377 50.4662C24.0211 50.4778 23.642 50.4662 23.2767 50.5085C23.285 50.425 23.2943 50.3415 23.2998 50.258C23.3328 49.7439 23.3135 49.2385 23.2493 48.7441C26.087 48.8562 28.9561 48.6639 31.7917 48.6249C34.7536 48.5843 37.716 48.5683 40.6785 48.5744C40.6362 48.7793 40.6 48.9858 40.5719 49.1935ZM54.3861 53.8297C53.321 55.56 51.9192 56.4829 49.8719 56.6339C47.9899 56.7735 46.0415 56.3456 44.4441 55.3255C42.8258 54.2928 41.9452 52.6223 41.8442 50.7167C41.6936 47.869 43.2026 45.3296 45.4779 43.8975C46.3189 43.4729 47.2401 43.2081 48.1833 43.135C51.6961 42.862 54.8717 45.2005 55.5353 48.682C55.8797 50.4898 55.3332 52.291 54.3861 53.8297ZM56.74 47.2439C55.7501 44.3166 53.0903 42.0754 49.907 41.698C47.5927 41.4234 45.2812 42.1128 43.5459 43.6767C43.3092 43.8904 43.0741 44.1266 42.8478 44.382C42.0458 45.2153 41.4377 46.22 41.0405 47.3055C37.9572 47.3164 34.8739 47.351 31.7917 47.412C28.8924 47.4691 25.9365 47.4159 23.0471 47.7295C22.1995 44.5671 19.4255 42.0957 16.0681 41.6975C13.7538 41.4228 11.4423 42.1122 9.70699 43.6767C9.47024 43.8898 9.23513 44.1266 9.00881 44.382C8.35513 45.0609 7.83108 45.8547 7.44381 46.7122C7.40591 46.7149 7.368 46.7199 7.3279 46.7287C7.06149 46.7902 6.79287 46.821 6.52371 46.8341C6.49844 46.5853 6.56271 46.3282 6.58084 46.0772C6.6105 45.6608 6.6061 45.2422 6.57095 44.8264C6.52096 44.2254 6.46438 43.5229 6.18643 42.9785C5.83541 42.2924 4.87411 42.0556 4.07101 42.1584C4.05673 41.7563 4.0419 41.3542 4.02926 40.9521C3.99521 39.8875 3.96335 38.8224 3.93423 37.7572C3.91775 37.1623 4.004 36.301 3.83536 35.6231C4.55056 35.605 5.26907 35.5303 5.92825 35.5188C9.38235 35.4589 12.837 35.4787 16.2911 35.4979C23.2877 35.5363 30.3096 35.6286 37.2942 35.1299C38.7773 35.0238 40.4352 34.7442 41.1619 33.2671C41.358 32.8678 41.4294 32.3838 41.3657 31.9284C41.5426 30.4612 41.592 28.9786 41.6651 27.5031C41.7623 25.5481 41.8612 23.5937 41.9458 21.6381C42.0298 19.6836 42.1216 17.7292 42.221 15.7752C42.2369 15.4682 42.1754 14.9337 42.3347 14.6618C42.5182 14.3487 43.0829 14.3668 43.4256 14.3228C44.4726 14.1877 45.5295 14.163 46.5837 14.135C48.4821 14.0839 50.3805 14.035 52.279 13.985C52.7168 13.9735 53.1551 13.9619 53.5935 13.9504C54.0159 13.9389 54.5438 13.8378 54.9635 13.9169C55.5765 14.0323 56.0319 15.3253 56.3049 15.8428C57.9732 19.0091 59.0987 22.4209 60.4116 25.7404C61.0801 27.4328 61.7124 29.2291 63.0049 30.559C64.1354 31.7208 65.679 32.3459 66.7754 33.5132C67.4401 34.2213 68.0081 35.2694 68.0976 36.2477C67.707 36.3697 67.1357 36.2065 66.7007 36.2549C66.2343 36.3065 65.7828 36.4466 65.3977 36.7207C64.5408 37.3304 64.4589 38.3714 64.3244 39.3332C63.9684 41.8722 63.9096 44.4078 64.0382 46.9627C61.6173 46.9676 59.1454 46.9402 56.74 47.2439ZM70.5047 49.5494C70.486 49.7867 70.4893 50.2234 70.3471 50.4289C70.1828 50.6662 70.0713 50.6189 69.7521 50.6409C69.1248 50.6837 68.4937 50.7002 67.8652 50.7216C66.6068 50.7634 65.3472 50.7821 64.0882 50.7771C61.7618 50.7683 59.4382 50.5415 57.1173 50.492C57.1245 50.414 57.1333 50.336 57.1382 50.258C57.1833 49.5719 57.1355 48.9001 57.0086 48.2525C59.2772 48.3909 61.5778 48.2882 63.8454 48.3096C65.1357 48.3211 66.426 48.3448 67.7164 48.3788C68.4113 48.3969 69.1056 48.4162 69.8005 48.4431C70.0647 48.4535 70.3322 48.3909 70.4992 48.6436C70.6118 48.815 70.5206 49.3478 70.5047 49.5494Z" fill="#7570AE" stroke="#615BA3" stroke-width="6" mask="url(#path-1-inside-1)"/>
</svg>
